<svg width="900" height="240" viewBox="0 0 900 240" xmlns="http://www.w3.org/2000/svg">
  <defs>
    <pattern id="cfFooterV2" width="10" height="10" patternUnits="userSpaceOnUse">
      <rect width="10" height="10" fill="#050505"/>
      <path d="M0,0 L5,5 L10,0 L5,-5 Z M5,5 L10,10 L15,5 L10,0 Z M-5,5 L0,10 L5,5 L0,0 Z M0,10 L5,15 L10,10 L5,5 Z" fill="#0d0d0d"/>
    </pattern>
    <linearGradient id="footerAccentV2" x1="0%" y1="0%" x2="100%" y2="0%">
      <stop offset="0%" stop-color="#39FF14" stop-opacity="0.1"/>
      <stop offset="50%" stop-color="#39FF14" stop-opacity="0.95"/>
      <stop offset="100%" stop-color="#39FF14" stop-opacity="0.1"/>
    </linearGradient>
  </defs>

  <rect width="900" height="240" fill="url(#cfFooterV2)" rx="12" stroke="#39FF14" stroke-opacity="0.3" stroke-width="1"/>
  <rect width="900" height="240" fill="#000000" opacity="0.45" rx="12"/>
  <rect y="237" width="900" height="3" fill="url(#footerAccentV2)" rx="2"/>

  <text x="450" y="44" font-family="'Consolas',monospace" font-size="11" fill="#888888" letter-spacing="5" text-anchor="middle">// AIX SOVEREIGN STACK · ECHO369</text>

  <text x="450" y="92" font-family="'Consolas',monospace" font-size="22" fill="#ffffff" letter-spacing="2" text-anchor="middle" font-weight="600">King isn't Born, he is Made.</text>

  <text x="450" y="128" font-family="'Consolas',monospace" font-size="11" fill="#39FF14" letter-spacing="2" text-anchor="middle" opacity="0.9">complex math · raw compute · sovereign agents</text>
  <text x="450" y="148" font-family="'Consolas',monospace" font-size="11" fill="#aaaaaa" letter-spacing="2" text-anchor="middle">goal is 10x · cadence is 369</text>

  <text x="450" y="194" font-family="'Consolas',monospace" font-size="10" fill="#888888" letter-spacing="3" text-anchor="middle">L0 axiomid · L1 aix-format · L2 iqra · L3 aix-agent-skills</text>
  <text x="450" y="210" font-family="'Consolas',monospace" font-size="10" fill="#666666" letter-spacing="3" text-anchor="middle">satellites · alphaaxiom · piworker-os · gemclaw</text>

  <text x="450" y="232" font-family="'Consolas',monospace" font-size="9" fill="#444444" letter-spacing="4" text-anchor="middle">// SPEC AIX/1.0 · END_OF_TRANSMISSION</text>

  <circle cx="855" cy="36" r="3.5" fill="#39FF14">
    <animate attributeName="opacity" values="1;0.2;1" dur="2s" repeatCount="indefinite"/>
  </circle>
</svg>
